HIERARCHY
ROOT Hips
{
	OFFSET 0.187722 90.750800 -2.368500
	CHANNELS 6 Xposition Yposition Zposition Zrotation Yrotation Xrotation 
	JOINT Spine
	{
		OFFSET 0.000000 9.923500 -1.227300
		CHANNELS 3 Zrotation Yrotation Xrotation
		JOINT Spine1
		{
			OFFSET -0.000100 11.645400 -1.422300
			CHANNELS 3 Zrotation Yrotation Xrotation
			JOINT Spine2
			{
				OFFSET 0.000100 13.360200 -1.626500
				CHANNELS 3 Zrotation Yrotation Xrotation
				JOINT Neck
				{
					OFFSET 0.000000 15.032500 0.792900
					CHANNELS 3 Zrotation Yrotation Xrotation
					JOINT Head
					{
						OFFSET 0.000000 10.321800 3.142400
						CHANNELS 3 Zrotation Yrotation Xrotation
						JOINT HeadTop_End
						{
							OFFSET 0.000200 18.474700 6.636400
							CHANNELS 3 Zrotation Yrotation Xrotation
							End Site
							{
								OFFSET 0.000000 0.000000 0.000000
							}
						}
						JOINT LeftEye
						{
							OFFSET 2.947900 7.681700 9.120700
							CHANNELS 3 Zrotation Yrotation Xrotation
							End Site
							{
								OFFSET 0.000000 0.000000 0.000000
							}
						}
						JOINT RightEye
						{
							OFFSET -2.944500 7.681700 9.120500
							CHANNELS 3 Zrotation Yrotation Xrotation
							End Site
							{
								OFFSET 0.000000 0.000000 0.000000
							}
						}
					}
				}
				JOINT LeftShoulder
				{
					OFFSET 6.105800 9.110400 0.705600
					CHANNELS 3 Zrotation Yrotation Xrotation
					JOINT LeftArm
					{
						OFFSET 12.655000 -0.265900 -2.600900
						CHANNELS 3 Zrotation Yrotation Xrotation
						JOINT LeftForeArm
						{
							OFFSET 27.404700 0.000000 0.000000
							CHANNELS 3 Zrotation Yrotation Xrotation
							JOINT LeftHand
							{
								OFFSET 27.614500 0.000000 0.000000
								CHANNELS 3 Zrotation Yrotation Xrotation
								JOINT LeftHandMiddle1
								{
									OFFSET 12.775500 0.000000 0.000000
									CHANNELS 3 Zrotation Yrotation Xrotation
									JOINT LeftHandMiddle2
									{
										OFFSET 3.614000 0.000000 0.000000
										CHANNELS 3 Zrotation Yrotation Xrotation
										JOINT LeftHandMiddle3
										{
											OFFSET 3.459800 0.000000 0.000000
											CHANNELS 3 Zrotation Yrotation Xrotation
											End Site
											{
												OFFSET 0.000000 0.000000 0.000000
											}
										}
									}
								}
								JOINT LeftHandThumb1
								{
									OFFSET 3.788800 -2.167000 3.003100
									CHANNELS 3 Zrotation Yrotation Xrotation
									JOINT LeftHandThumb2
									{
										OFFSET 3.675400 -2.122000 2.122000
										CHANNELS 3 Zrotation Yrotation Xrotation
										JOINT LeftHandThumb3
										{
											OFFSET 3.394400 -1.959700 1.959800
											CHANNELS 3 Zrotation Yrotation Xrotation
											End Site
											{
												OFFSET 0.000000 0.000000 0.000000
											}
										}
									}
								}
								JOINT LeftHandIndex1
								{
									OFFSET 12.266600 -0.231700 2.822100
									CHANNELS 3 Zrotation Yrotation Xrotation
									JOINT LeftHandIndex2
									{
										OFFSET 3.892000 0.000000 0.000000
										CHANNELS 3 Zrotation Yrotation Xrotation
										JOINT LeftHandIndex3
										{
											OFFSET 3.415200 0.000000 0.000000
											CHANNELS 3 Zrotation Yrotation Xrotation
											End Site
											{
												OFFSET 0.000000 0.000000 0.000000
											}
										}
									}
								}
								JOINT LeftHandRing1
								{
									OFFSET 12.147000 0.009900 -2.216600
									CHANNELS 3 Zrotation Yrotation Xrotation
									JOINT LeftHandRing2
									{
										OFFSET 3.601200 0.000000 0.000000
										CHANNELS 3 Zrotation Yrotation Xrotation
										JOINT LeftHandRing3
										{
											OFFSET 3.307300 0.000000 0.000000
											CHANNELS 3 Zrotation Yrotation Xrotation
											End Site
											{
												OFFSET 0.000000 0.000000 0.000000
											}
										}
									}
								}
								JOINT LeftHandPinky1
								{
									OFFSET 10.908200 -0.226400 -4.725800
									CHANNELS 3 Zrotation Yrotation Xrotation
									JOINT LeftHandPinky2
									{
										OFFSET 4.136700 0.000000 0.000000
										CHANNELS 3 Zrotation Yrotation Xrotation
										JOINT LeftHandPinky3
										{
											OFFSET 2.594800 0.000000 0.000000
											CHANNELS 3 Zrotation Yrotation Xrotation
											End Site
											{
												OFFSET 0.000000 0.000000 0.000000
											}
										}
									}
								}
							}
						}
					}
				}
				JOINT RightShoulder
				{
					OFFSET -6.105700 9.110500 0.705600
					CHANNELS 3 Zrotation Yrotation Xrotation
					JOINT RightArm
					{
						OFFSET -12.655000 -0.266000 -2.600900
						CHANNELS 3 Zrotation Yrotation Xrotation
						JOINT RightForeArm
						{
							OFFSET -27.404700 0.000000 0.000000
							CHANNELS 3 Zrotation Yrotation Xrotation
							JOINT RightHand
							{
								OFFSET -27.614500 0.000000 0.000000
								CHANNELS 3 Zrotation Yrotation Xrotation
								JOINT RightHandMiddle1
								{
									OFFSET -12.775500 0.000000 0.000000
									CHANNELS 3 Zrotation Yrotation Xrotation
									JOINT RightHandMiddle2
									{
										OFFSET -3.614000 0.000000 0.000000
										CHANNELS 3 Zrotation Yrotation Xrotation
										JOINT RightHandMiddle3
										{
											OFFSET -3.459800 0.000000 0.000000
											CHANNELS 3 Zrotation Yrotation Xrotation
											End Site
											{
												OFFSET 0.000000 0.000000 0.000000
											}
										}
									}
								}
								JOINT RightHandThumb1
								{
									OFFSET -3.788800 -2.167000 3.003100
									CHANNELS 3 Zrotation Yrotation Xrotation
									JOINT RightHandThumb2
									{
										OFFSET -3.675400 -2.122000 2.122000
										CHANNELS 3 Zrotation Yrotation Xrotation
										JOINT RightHandThumb3
										{
											OFFSET -3.394400 -1.959700 1.959800
											CHANNELS 3 Zrotation Yrotation Xrotation
											End Site
											{
												OFFSET 0.000000 0.000000 0.000000
											}
										}
									}
								}
								JOINT RightHandIndex1
								{
									OFFSET -12.266600 -0.231700 2.822100
									CHANNELS 3 Zrotation Yrotation Xrotation
									JOINT RightHandIndex2
									{
										OFFSET -3.892000 0.000000 0.000000
										CHANNELS 3 Zrotation Yrotation Xrotation
										JOINT RightHandIndex3
										{
											OFFSET -3.415200 0.000000 0.000000
											CHANNELS 3 Zrotation Yrotation Xrotation
											End Site
											{
												OFFSET 0.000000 0.000000 0.000000
											}
										}
									}
								}
								JOINT RightHandRing1
								{
									OFFSET -12.147000 0.009900 -2.216600
									CHANNELS 3 Zrotation Yrotation Xrotation
									JOINT RightHandRing2
									{
										OFFSET -3.601200 0.000000 0.000000
										CHANNELS 3 Zrotation Yrotation Xrotation
										JOINT RightHandRing3
										{
											OFFSET -3.307300 0.000000 0.000000
											CHANNELS 3 Zrotation Yrotation Xrotation
											End Site
											{
												OFFSET 0.000000 0.000000 0.000000
											}
										}
									}
								}
								JOINT RightHandPinky1
								{
									OFFSET -10.908200 -0.226400 -4.725800
									CHANNELS 3 Zrotation Yrotation Xrotation
									JOINT RightHandPinky2
									{
										OFFSET -4.136700 0.000000 0.000000
										CHANNELS 3 Zrotation Yrotation Xrotation
										JOINT RightHandPinky3
										{
											OFFSET -2.594800 0.000000 0.000000
											CHANNELS 3 Zrotation Yrotation Xrotation
											End Site
											{
												OFFSET 0.000000 0.000000 0.000000
											}
										}
									}
								}
							}
						}
					}
				}
			}
		}
	}
	JOINT RightUpLeg
	{
		OFFSET -9.124500 -6.656400 -0.055400
		CHANNELS 3 Zrotation Yrotation Xrotation
		JOINT RightLeg
		{
			OFFSET -0.244700 -40.595400 -0.514500
			CHANNELS 3 Zrotation Yrotation Xrotation
			JOINT RightFoot
			{
				OFFSET 0.244700 -42.047900 -2.060200
				CHANNELS 3 Zrotation Yrotation Xrotation
				JOINT RightToeBase
				{
					OFFSET -0.373400 -10.492200 12.640700
					CHANNELS 3 Zrotation Yrotation Xrotation
					End Site
					{
						OFFSET 0.000000 0.000000 0.000000
					}
				}
			}
		}
	}
	JOINT LeftUpLeg
	{
		OFFSET 9.124500 -6.656400 -0.055400
		CHANNELS 3 Zrotation Yrotation Xrotation
		JOINT LeftLeg
		{
			OFFSET 0.244700 -40.595400 -0.517000
			CHANNELS 3 Zrotation Yrotation Xrotation
			JOINT LeftFoot
			{
				OFFSET -0.244700 -42.048000 -2.057600
				CHANNELS 3 Zrotation Yrotation Xrotation
				JOINT LeftToeBase
				{
					OFFSET 0.373400 -10.492200 12.640700
					CHANNELS 3 Zrotation Yrotation Xrotation
					End Site
					{
						OFFSET 0.000000 0.000000 0.000000
					}
				}
			}
		}
	}
}
MOTION
Frames: 5
Frame Time: 0.016667
0.187722 90.750800 2012.571500 -3.737176 -8.021438 2.453217 0.382824 1.373278 8.294659 0.743223 2.769116 16.603648 0.743222 2.769116 16.603648 3.811788 -2.560034 -5.863542 -7.922732 5.813548 -25.914698 0.000000 0.000000 0.000000 0.000000 0.000000 0.000000 0.000000 0.000000 0.000000 -5.620990 -3.052312 0.878842 -62.589180 -30.135823 42.563714 -179.998707 -76.623695 -178.702866 -27.547949 19.064193 26.844961 -27.967485 4.310196 -3.005458 -49.342354 -2.827420 1.000423 -0.000000 -0.000000 -0.000000 -20.576179 -8.747024 30.046413 -0.548177 1.634561 0.344137 -0.000085 -0.001098 -0.000590 -15.949488 5.225888 -12.794880 -31.480190 1.795932 -0.784588 -0.000000 0.000000 -0.000000 -40.059950 8.381394 -3.953389 -62.206399 -2.523295 1.501036 -0.000007 0.000005 -0.000005 -52.267352 14.866325 -2.091984 -64.818848 -5.219462 4.383541 0.000000 -0.000000 -0.000000 5.486812 -1.691715 0.241098 77.364144 42.579037 60.373370 0.000639 69.705475 0.961648 1.517167 -14.661882 44.440049 33.799397 1.593943 -4.445434 35.123446 1.499355 0.490935 -0.000000 -0.000000 0.000000 5.960241 -14.381504 2.137264 -2.225710 -9.255602 3.597619 0.000085 0.001102 -0.000593 20.063660 2.708792 -10.479441 21.871789 -1.867045 0.135397 0.000000 -0.000000 0.000000 40.618863 -1.203160 -2.049972 40.363187 2.754190 0.220324 0.000000 -0.000000 -0.000001 51.756429 0.033158 2.985071 48.924428 8.188673 2.775510 -0.000000 0.000000 -0.000000 -1.466424 -2.457543 -29.373356 1.759466 -1.638894 69.528692 14.133429 -16.260526 -24.627325 -0.002995 0.004473 -0.737292 0.812852 6.805729 -29.224513 -2.140274 1.195842 59.931348 -5.719447 16.576306 -25.233222 0.557893 0.013969 -5.297730 
0.178136 91.280300 2014.711958 -3.543486 -8.288728 2.866770 0.308282 1.247194 8.236995 0.612226 2.475956 16.484628 0.612225 2.475956 16.484628 3.390424 -2.846295 -4.862854 -7.618650 6.041772 -25.190100 -0.000000 -0.000000 0.000000 -0.000000 -0.000000 0.000000 -0.000000 -0.000000 0.000000 -5.503026 -3.144414 0.886585 -62.697793 -31.205372 42.937207 -179.998474 -76.966800 -178.707994 -25.853623 18.784909 27.308545 -27.967586 4.310176 -3.005488 -49.342353 -2.827430 1.000401 0.000000 -0.000000 0.000000 -20.576179 -8.747024 30.046413 -0.548181 1.634561 0.344112 -0.000085 -0.001098 -0.000590 -15.949483 5.225868 -12.794880 -31.480190 1.795982 -0.784564 -0.000000 0.000000 0.000000 -40.059953 8.381383 -3.953420 -62.206399 -2.523285 1.501046 -0.000007 0.000005 -0.000005 -52.267352 14.866325 -2.091984 -64.818848 -5.219462 4.383541 0.000000 0.000000 -0.000000 5.785226 -1.424306 0.253633 75.391705 43.548051 59.635148 0.000697 70.449358 1.051406 2.841651 -15.234457 42.606767 33.799399 1.593933 -4.445404 35.123446 1.499375 0.490947 0.000000 0.000000 0.000000 5.960236 -14.381504 2.137244 -2.225689 -9.255592 3.597619 0.000085 0.001102 -0.000593 20.063654 2.708821 -10.479442 21.871787 -1.867085 0.135438 -0.000000 0.000000 -0.000000 40.618863 -1.203170 -2.049972 40.363187 2.754210 0.220332 0.000000 0.000000 -0.000001 51.756430 0.033183 2.985081 48.924426 8.188694 2.775490 0.000000 0.000000 -0.000000 -0.907771 -2.241035 -30.773492 1.764767 -1.519929 66.665988 13.499328 -15.546911 -25.657122 0.455129 -1.114118 -2.077163 0.626349 7.027816 -27.639491 -2.103398 1.160822 58.803613 -6.225737 15.994274 -24.760881 0.943598 -0.075937 -6.349426 
0.121837 91.853000 2016.879720 -3.381559 -8.551413 3.231472 0.235227 1.134102 8.202248 0.487722 2.211463 16.412169 0.487727 2.211462 16.412269 2.929447 -3.209471 -4.496798 -7.055991 6.136329 -24.103891 0.000000 0.000000 0.000000 0.000000 0.000000 0.000000 0.000000 0.000000 0.000000 -5.485621 -3.248581 0.898502 -62.568289 -32.376565 43.269492 -179.998601 -77.313885 -178.709116 -24.160966 18.367879 27.607414 -27.967487 4.310186 -3.005488 -49.342353 -2.827410 1.000406 0.000000 0.000000 -0.000000 -20.576179 -8.747024 30.046413 -0.548204 1.634561 0.344144 -0.000085 -0.001098 -0.000590 -15.949483 5.225868 -12.794880 -31.480191 1.795962 -0.784598 -0.000000 0.000000 -0.000000 -40.059949 8.381384 -3.953389 -62.206398 -2.523265 1.501036 -0.000007 0.000005 -0.000005 -52.267352 14.866325 -2.091984 -64.818845 -5.219432 4.383531 0.000000 0.000000 0.000000 6.017739 -1.209397 0.269152 73.559495 44.585380 58.984141 0.000699 71.034203 1.205367 3.367578 -15.631193 40.977918 33.799397 1.593953 -4.445434 35.123446 1.499355 0.490928 -0.000000 -0.000000 0.000000 5.960230 -14.381404 2.137243 -2.225711 -9.255571 3.597639 0.000085 0.001102 -0.000593 20.063654 2.708821 -10.479442 21.871788 -1.867075 0.135415 0.000000 0.000000 -0.000000 40.618861 -1.203130 -2.049962 40.363187 2.754190 0.220329 -0.000000 -0.000000 -0.000001 51.756431 0.033189 2.985081 48.924331 8.188703 2.775520 -0.000000 -0.000000 -0.000000 -0.258833 -2.026001 -31.916906 1.757683 -1.386675 63.433537 12.278903 -15.052423 -26.431047 0.417338 -1.485443 -3.791736 0.520053 7.194104 -25.903856 -2.062353 1.118746 57.469920 -6.539692 15.362511 -23.979033 1.219668 -0.217510 -7.529165 
-0.073355 92.560500 2019.129700 -3.294460 -8.829263 3.442289 0.163080 1.062958 8.253340 0.371130 2.033889 16.512400 0.371128 2.033889 16.512400 2.462674 -3.613707 -4.473513 -6.331850 6.140612 -22.840091 -0.000000 0.000000 0.000000 -0.000000 0.000000 0.000000 -0.000000 0.000000 0.000000 -5.732639 -3.334282 0.919066 -61.785084 -33.923799 43.494031 -179.998297 -77.658931 -178.702214 -22.438411 17.601653 27.391143 -27.967484 4.310186 -3.005458 -49.342352 -2.827450 1.000387 -0.000000 -0.000000 -0.000000 -20.576179 -8.747024 30.046413 -0.548186 1.634561 0.344110 -0.000085 -0.001098 -0.000590 -15.949488 5.225888 -12.794880 -31.480191 1.795942 -0.784614 0.000000 -0.000000 0.000000 -40.059953 8.381373 -3.953419 -62.206398 -2.523265 1.501036 -0.000007 0.000005 -0.000005 -52.267350 14.866325 -2.091974 -64.818847 -5.219432 4.383561 0.000000 0.000000 0.000000 6.026551 -1.191765 0.283141 72.272116 45.800142 58.689665 0.000671 71.159768 1.259660 3.126791 -15.678320 39.722401 33.799398 1.593943 -4.445414 35.123446 1.499355 0.490949 -0.000000 0.000000 0.000000 5.960235 -14.381404 2.137263 -2.225698 -9.255602 3.597609 0.000085 0.001102 -0.000593 20.063654 2.708821 -10.479442 21.871789 -1.867075 0.135390 0.000000 -0.000000 0.000000 40.618862 -1.203140 -2.049952 40.363186 2.754200 0.220307 0.000000 -0.000000 -0.000001 51.756430 0.033173 2.985081 48.924330 8.188703 2.775510 -0.000000 -0.000000 -0.000000 0.647680 -1.747972 -32.326770 1.724146 -1.215737 59.140879 8.953895 -15.304072 -26.455910 -1.242416 0.520471 -7.074993 0.631526 7.211160 -23.665462 -2.008810 1.052338 55.477947 -6.359784 14.637829 -22.334353 1.203159 -0.587335 -9.711945 
-0.317661 93.292300 2021.404940 -3.288133 -9.035943 3.630200 0.104967 1.002938 8.295490 0.282773 1.881033 16.595401 0.282774 1.881033 16.595401 2.019195 -4.045605 -4.670794 -5.464685 6.051857 -21.493184 0.000000 0.000000 0.000000 0.000000 0.000000 0.000000 0.000000 0.000000 0.000000 -6.156422 -3.539727 0.957827 -60.654924 -35.473371 43.522118 -179.998421 -78.031965 -178.690525 -20.751740 16.706258 26.987175 -27.967487 4.310156 -3.005508 -49.342352 -2.827410 1.000399 0.000000 -0.000000 0.000000 -20.576179 -8.747024 30.046413 -0.548202 1.634551 0.344100 -0.000085 -0.001098 -0.000590 -15.949488 5.225888 -12.794880 -31.480190 1.795962 -0.784555 -0.000000 0.000000 -0.000000 -40.059950 8.381384 -3.953399 -62.206398 -2.523275 1.501016 -0.000007 0.000005 -0.000005 -52.267355 14.866325 -2.091995 -64.818847 -5.219442 4.383551 -0.000000 0.000000 -0.000000 6.020118 -1.144054 0.304608 71.024551 46.980962 58.369337 0.000807 71.139073 1.258269 2.470354 -15.737436 38.587205 33.799399 1.593933 -4.445414 35.123447 1.499365 0.490961 -0.000000 0.000000 -0.000000 5.960258 -14.381404 2.137253 -2.225707 -9.255592 3.597609 0.000085 0.001102 -0.000593 20.063656 2.708811 -10.479442 21.871787 -1.867085 0.135440 0.000000 0.000000 -0.000000 40.618862 -1.203150 -2.049972 40.363186 2.754210 0.220296 -0.000000 0.000000 -0.000001 51.756431 0.033188 2.985081 48.924427 8.188684 2.775500 0.000000 0.000000 -0.000000 1.663032 -1.584767 -32.404609 1.656265 -1.038493 54.360724 5.754540 -15.602632 -26.169491 -3.122403 2.999354 -9.897134 0.875993 7.132480 -21.353236 -1.947298 0.983354 53.316226 -5.818337 13.758529 -20.222238 0.988271 -0.872670 -12.204037 
